# xmcd
#
# Track frame offsets:
#	150
#	21627
#	43490
#	62863
#	79364
#	99080
#	115459
#	133727
#	157291
#	174585
#	191578
#	208281
#	224817
#	242915
#
# Disc length: 3463 seconds
#
# Revision: 0
# Processed by: cddbd v1.5.2PL0 Copyright (c) Steve Scherf et al.
# Submitted via: EZCDAudioConverter 5.5.0.1
#
DISCID=e80d850e
DTITLE=Adriano Pappalardo - I Grandi Succesi
DYEAR=2003
DGENRE=Pop
TTITLE0=E' ancora giorno
TTITLE1=Segui lui
TTITLE2=Una donna
TTITLE3=California no
TTITLE4=Cavallo
TTITLE5=Mi basta così
TTITLE6=Donna mia
TTITLE7=Voglio lei
TTITLE8=Non mi lasciare mai
TTITLE9=Ricominciamo
TTITLE10=Giallo uguale sole
TTITLE11=Risalendo la sagola
TTITLE12=Signorina
TTITLE13=Recomencemos
EXTD=
EXTT0=
EXTT1=
EXTT2=
EXTT3=
EXTT4=
EXTT5=
EXTT6=
EXTT7=
EXTT8=
EXTT9=
EXTT10=
EXTT11=
EXTT12=
EXTT13=
PLAYORDER=
